<?xml version="1.0" standalone="no"?>
<!DOCTYPE svg PUBLIC "-//W3C//DTD SVG 20010904//EN"
 "http://www.w3.org/TR/2001/REC-SVG-20010904/DTD/svg10.dtd">
<svg version="1.0" xmlns="http://www.w3.org/2000/svg"
 width="659.000000pt" height="321.000000pt" viewBox="0 0 659.000000 321.000000"
 preserveAspectRatio="xMidYMid meet">
<metadata>
Created by potrace 1.16, written by Peter Selinger 2001-2019
</metadata>
<g transform="translate(0.000000,321.000000) scale(0.100000,-0.100000)"
fill="#1a365d" stroke="none">
<path d="M1462 2524 c-246 -54 -465 -229 -570 -456 -50 -109 -67 -194 -67
-343 0 -166 14 -227 80 -360 79 -161 205 -285 370 -365 124 -60 217 -81 355
-81 235 0 397 69 562 237 87 89 123 141 168 239 53 114 65 179 65 335 0 166
-23 265 -92 390 -94 173 -251 309 -428 371 -136 48 -315 61 -443 33z m343
-109 c240 -62 435 -263 501 -515 24 -89 23 -273 -1 -360 -33 -118 -91 -216
-185 -310 -94 -94 -162 -138 -272 -178 -65 -23 -88 -26 -213 -26 -158 -1 -193
7 -330 77 -60 31 -101 62 -166 126 -150 150 -209 291 -209 500 0 122 10 174
53 278 81 199 269 360 472 407 39 8 79 18 90 20 37 9 199 -3 260 -19z"/>
<path d="M1616 2312 c-23 -38 -31 -184 -31 -582 1 -409 9 -553 34 -598 15 -27
31 49 43 198 14 193 4 836 -15 918 -16 67 -21 79 -31 64z"/>
<path d="M1506 2302 c-7 -11 -33 -147 -47 -242 -20 -134 -17 -582 5 -705 19
-115 44 -205 55 -205 5 0 10 17 13 38 4 30 3 991 -1 1095 -1 25 -14 36 -25 19z"/>
<path d="M1715 2267 c-4 -24 -2 -151 3 -283 6 -153 6 -333 0 -495 -9 -247 -6
-339 12 -339 8 0 31 65 44 123 50 222 48 723 -3 917 -33 124 -46 143 -56 77z"/>
<path d="M1381 2228 c-13 -29 -35 -107 -49 -173 -23 -107 -26 -142 -25 -325 0
-226 12 -322 61 -463 49 -146 56 -98 33 232 -13 194 -11 316 10 620 6 80 6
148 1 153 -4 4 -18 -15 -31 -44z"/>
<path d="M1833 2208 c3 -40 11 -122 17 -183 12 -109 8 -457 -8 -723 -4 -61 -3
-112 1 -112 17 0 57 109 79 215 19 93 23 140 23 310 0 199 -10 297 -42 415
-16 57 -59 150 -69 150 -4 0 -4 -33 -1 -72z"/>
<path d="M1280 2199 c-25 -42 -54 -118 -83 -218 -18 -63 -21 -103 -22 -236 0
-162 6 -204 47 -335 22 -69 62 -155 76 -164 5 -3 0 45 -11 107 -29 164 -29
547 0 737 12 74 20 137 18 139 -2 2 -13 -12 -25 -30z"/>
<path d="M1946 2180 c3 -25 10 -67 15 -95 4 -27 16 -117 25 -198 15 -129 16
-163 5 -270 -11 -107 -29 -242 -46 -344 -14 -79 42 -2 80 113 14 42 33 108 40
146 20 92 19 276 -1 374 -20 95 -80 262 -106 295 l-20 24 8 -45z"/>
<path d="M2064 2103 c3 -10 15 -65 27 -123 38 -179 28 -393 -27 -620 -6 -22
-3 -21 20 10 67 87 125 250 126 352 0 48 -25 164 -47 219 -19 48 -92 179 -100
179 -2 0 -2 -8 1 -17z"/>
<path d="M1148 2052 c-20 -32 -50 -89 -65 -127 -25 -64 -27 -82 -27 -200 0
-111 3 -138 22 -186 20 -51 111 -203 112 -187 0 3 -12 55 -26 115 -43 175 -39
381 12 582 8 30 13 56 11 57 -1 2 -19 -23 -39 -54z"/>
<path d="M4120 1740 l0 -440 90 0 90 0 0 184 c0 216 3 238 42 277 25 25 37 29
84 29 45 0 59 -5 86 -29 l33 -29 3 -216 3 -216 90 0 89 0 0 236 c0 258 -5 291
-53 350 -42 51 -97 74 -180 74 -76 0 -128 -18 -169 -57 l-28 -27 0 152 0 152
-90 0 -90 0 0 -440z"/>
<path d="M2889 1957 c-104 -30 -174 -92 -211 -189 -54 -144 -23 -297 81 -391
138 -124 345 -126 486 -4 l38 33 -63 52 -63 51 -34 -29 c-70 -62 -172 -62
-237 -2 -24 23 -56 78 -56 97 0 3 109 5 241 5 l242 0 -5 83 c-6 94 -24 143
-73 203 -51 61 -125 95 -222 100 -46 2 -97 -1 -124 -9z m170 -145 c36 -18 65
-52 76 -89 l6 -23 -150 0 c-165 0 -166 0 -131 57 39 64 131 90 199 55z"/>
<path d="M3640 1956 c-75 -20 -118 -46 -165 -98 -90 -100 -113 -255 -56 -373
49 -102 138 -168 264 -196 68 -15 152 -2 219 32 47 24 118 87 118 104 0 6 -27
34 -61 60 l-60 47 -27 -25 c-85 -79 -201 -73 -263 15 -35 49 -39 151 -7 197
40 59 72 76 143 76 57 0 68 -4 105 -34 l42 -33 53 37 c30 20 59 43 65 50 28
34 -72 113 -175 140 -70 18 -133 18 -195 1z"/>
<path d="M5089 1957 c-186 -53 -292 -233 -245 -416 34 -135 133 -222 285 -252
156 -30 325 50 392 187 35 72 39 197 8 279 -30 79 -105 155 -186 185 -71 27
-191 35 -254 17z m154 -158 c50 -13 103 -61 118 -106 17 -51 7 -134 -20 -172
-50 -70 -173 -95 -242 -48 -56 37 -79 81 -79 149 0 89 38 145 117 173 47 17
58 18 106 4z"/>

</g>
</svg>
